# xmcd CD database file
#
# Track frame offsets:
#	150
#	49297
#	95710
#	142712
#	190382
#	233975
#	278135
#
# Disc length: 4454 seconds
#
# Revision: 0
# Processed by: cddbd v1.5PL3 Copyright (c) Steve Scherf et al.
# Submitted via: CDex 1.51
#
DISCID=62116407
DTITLE=Steelbands Of Trinidad and Tobago - Pan Odyssey
DYEAR=1995
DGENRE=Calypso
TTITLE0=Jam It With You
TTITLE1=The Heavy Roller
TTITLE2=Bass Line
TTITLE3=Four Lara Four
TTITLE4=Pan Rebellion
TTITLE5=Simple Ting
TTITLE6=Quo Vadis [Reprise]
EXTD=YEAR: 1995
EXTT0=
EXTT1=
EXTT2=
EXTT3=
EXTT4=
EXTT5=
EXTT6=
PLAYORDER=
